<?xml version="1.0" encoding="iso-8859-1"?>
<!-- Generator: Adobe Illustrator 16.0.0, SVG Export Plug-In . SVG Version: 6.00 Build 0)  -->
<!DOCTYPE svg PUBLIC "-//W3C//DTD SVG 1.1//EN" "http://www.w3.org/Graphics/SVG/1.1/DTD/svg11.dtd">
<svg version="1.1" xmlns="http://www.w3.org/2000/svg" xmlns:xlink="http://www.w3.org/1999/xlink" x="0px" y="0px" width="96px"
	 height="24px" viewBox="0 0 96 24" style="enable-background:new 0 0 96 24;" xml:space="preserve">
<g id="BFRP">
	<path style="fill:#002F87;" d="M27.145,6.646l-2.635,8.865l-2.216-7.345c-0.414-1.314-0.626-1.52-1.422-1.52h-2.06l3.817,11.67
		h2.805l3.557-11.67H27.145z M83.53,8.279c0.005,0.004,0.009,0.01,0.013,0.016c0.065,0.072,0.143,0.148,0.234,0.234l2.656-2.485
		c-0.63-0.505-1.007-0.507-1.371-0.281c-0.075,0.046-0.149,0.1-0.228,0.164c-0.033,0.03-0.08,0.071-0.126,0.12
		c-0.112,0.113-0.745,0.832-1.071,1.207L83.521,7.38c-0.002,0.006-0.008,0.012-0.012,0.018c-0.037,0.046-0.069,0.089-0.104,0.135
		c-0.034,0.053-0.063,0.114-0.081,0.19c-0.007,0.048-0.012,0.097-0.005,0.144c0.007,0.069,0.026,0.137,0.057,0.193
		C83.419,8.134,83.469,8.21,83.53,8.279z M17.162,11.223l0.572-0.846c1.206-1.789,0.377-3.731-2.007-3.731H10.64v11.675h4.905
		C19.86,18.321,21.152,13.296,17.162,11.223z M14.217,16.762h-0.831V8.166h1.501c0.724,0,1.345,0.596,1.345,1.316
		c0,0.254-0.048,0.491-0.295,0.846l-0.972,1.457c1.018,0.244,1.698,1.018,1.698,2.466C16.663,16.013,15.61,16.762,14.217,16.762z
		 M7.283,11.223l0.567-0.846c1.21-1.789,0.382-3.731-2.007-3.731h-5.08v11.675H5.67C9.979,18.321,11.282,13.296,7.283,11.223z
		 M4.337,16.762H3.516V8.166h1.491c0.725,0,1.35,0.596,1.35,1.316c0,0.254-0.045,0.491-0.296,0.846l-0.978,1.457
		c1.021,0.244,1.699,1.018,1.699,2.466C6.782,16.013,5.731,16.762,4.337,16.762z M52.256,9.958
		c-0.316,0.196-0.601,0.431-0.858,0.682c0-0.211-0.004-0.372-0.022-0.508c-0.006-0.104-0.023-0.19-0.051-0.275
		c-0.023-0.054-0.048-0.112-0.092-0.167c-0.03-0.032-0.068-0.064-0.106-0.088c-0.06-0.038-0.121-0.06-0.188-0.067
		c-0.057-0.007-0.112-0.009-0.175-0.012h-0.578v8.792h1.212v-6.309c0.429-0.504,0.821-0.816,1.092-0.985
		c0.009-0.006,0.018-0.012,0.028-0.016c0.489-0.313,0.883-0.397,1.195-0.429c0.563-0.053,0.94-0.127,0.996-1.003
		c-0.225-0.067-0.485-0.107-0.759-0.111C53.306,9.458,52.739,9.658,52.256,9.958z M86.911,10.697
		c-0.321-0.43-0.737-0.752-1.225-0.972c-0.487-0.199-1.045-0.297-1.637-0.297c-0.567,0-1.094,0.106-1.573,0.315
		c-0.71,0.317-1.307,0.855-1.718,1.576c-0.406,0.716-0.632,1.604-0.632,2.623c0,0.66,0.086,1.273,0.268,1.819
		c0.267,0.816,0.736,1.475,1.394,1.928c0.647,0.448,1.486,0.691,2.466,0.691h0.001c0.785,0,1.421-0.127,1.94-0.312
		c0.83-0.313,1.256-0.695,1.461-0.92c-0.568-0.824-0.89-0.493-1.545-0.189c-0.381,0.188-1.118,0.348-1.779,0.348
		c-0.504,0-0.943-0.073-1.306-0.216c-0.278-0.101-0.52-0.244-0.725-0.426c-0.306-0.274-0.55-0.626-0.706-1.083
		c-0.146-0.402-0.224-0.882-0.239-1.439h6.324v-0.252c0-0.072,0.01-0.211,0.01-0.344c0-0.696-0.086-1.304-0.263-1.826
		C87.302,11.333,87.129,10.992,86.911,10.697z M81.39,13.122c0.056-0.405,0.148-0.754,0.276-1.069
		c0.229-0.542,0.552-0.941,0.949-1.205c0.406-0.271,0.881-0.4,1.435-0.4c0.366,0,0.703,0.05,0.99,0.151
		c0.212,0.078,0.408,0.186,0.58,0.333c0.255,0.217,0.457,0.503,0.607,0.901c0.125,0.349,0.214,0.768,0.245,1.289H81.39z
		 M33.427,6.648h-2.229l-3.571,11.668h1.818l0.768-2.512h4.241l0.771,2.512h3.161l-3.54-10.483
		C34.524,6.874,34.343,6.648,33.427,6.648z M30.724,14.088l1.593-5.326l1.617,5.326H30.724z M92.347,13.195
		c-1.725-0.289-2.016-0.668-2.016-1.405c0-0.892,0.611-1.324,1.869-1.324c1.04-0.002,1.386,0.277,1.702,0.418
		c0.315,0.144,0.58,0.178,0.916-0.225c0.044-0.052,0.088-0.112,0.134-0.18c-0.034-0.042-0.08-0.087-0.134-0.137
		c-1.082-0.939-2.163-0.914-2.633-0.914c-1.863,0-3.021,0.93-3.021,2.423c0,1.765,1.493,2.232,2.795,2.44
		c1.769,0.282,2.079,0.694,2.079,1.455c0,1.074-0.68,1.597-2.079,1.597c-0.638,0-1.138-0.129-1.516-0.307
		c-0.574-0.27-0.9-0.55-1.36-0.053c-0.063,0.068-0.134,0.156-0.206,0.26c0.054,0.061,0.123,0.128,0.206,0.204
		c0.166,0.147,0.399,0.318,0.721,0.489c0.183,0.089,0.396,0.173,0.64,0.242c0.413,0.12,0.92,0.201,1.548,0.201
		c2.092,0,3.244-0.959,3.244-2.698C95.236,13.894,93.847,13.431,92.347,13.195z M78.071,16.991
		c-0.357,0.174-0.832,0.313-1.452,0.313c-0.475,0-0.88-0.076-1.239-0.224c-0.268-0.114-0.502-0.264-0.712-0.453
		c-0.311-0.28-0.549-0.649-0.721-1.11c-0.164-0.458-0.259-1.01-0.259-1.636c0-0.554,0.077-1.039,0.224-1.462
		c0.207-0.63,0.558-1.111,1.017-1.438c0.455-0.329,1.021-0.504,1.69-0.504c0.567,0,0.998,0.094,1.328,0.233
		c0.618,0.267,1.048,0.58,1.501-0.375c-1.231-1-2.472-0.891-2.815-0.907c-0.605,0-1.175,0.104-1.68,0.297
		c-0.759,0.307-1.39,0.833-1.823,1.536c-0.429,0.71-0.666,1.598-0.664,2.621c0,0.669,0.091,1.29,0.274,1.839
		c0.276,0.828,0.756,1.486,1.411,1.946c0.658,0.449,1.474,0.696,2.426,0.696h0.001c0.75,0,1.369-0.147,1.856-0.354
		c0.063-0.024,0.125-0.051,0.184-0.078c0.394-0.188,0.763-0.473,0.982-0.684C79.082,16.327,78.672,16.68,78.071,16.991z
		 M42.267,18.314h1.26v-5.167h4.347v-1.114h-4.347V7.773h5.856V6.64h-7.116V18.314z M70.547,10.09
		c-0.223-0.261-0.507-0.424-0.816-0.524c-0.312-0.1-0.646-0.138-0.993-0.138c-0.779,0-1.483,0.172-2.121,0.443
		c-0.506,0.219-0.952,0.483-1.356,0.78v-0.093c0-0.19-0.004-0.337-0.016-0.465c-0.011-0.09-0.034-0.177-0.061-0.257
		c-0.021-0.054-0.055-0.112-0.097-0.158c-0.028-0.032-0.065-0.06-0.103-0.084c-0.065-0.034-0.123-0.052-0.184-0.059
		c-0.057-0.009-0.112-0.009-0.175-0.012h-0.575v8.769h1.209V11.82c0.445-0.339,0.945-0.656,1.459-0.9
		c0.55-0.255,1.122-0.415,1.706-0.415c0.222,0,0.431,0.019,0.613,0.063c0.13,0.034,0.249,0.085,0.351,0.144
		c0.152,0.102,0.271,0.231,0.361,0.427c0.09,0.197,0.14,0.458,0.14,0.817v6.336h1.218v-6.425c0-0.459-0.064-0.842-0.188-1.169
		C70.821,10.466,70.701,10.258,70.547,10.09z M61.386,10.164c-0.27-0.265-0.616-0.457-1.025-0.572
		c-0.395-0.114-0.852-0.164-1.341-0.164c-1.672,0.01-2.613,0.493-3.223,0.844c0.448,0.953,0.929,0.72,1.547,0.455
		c0.475-0.203,1.02-0.29,1.598-0.29c0.266,0,0.558,0.064,0.841,0.122c0.165,0.043,0.317,0.105,0.44,0.179
		c0.202,0.125,0.347,0.281,0.455,0.482c0.109,0.204,0.167,0.473,0.167,0.815v1.25c-0.632-0.142-1.271-0.205-1.996-0.205
		c-0.508,0-0.973,0.05-1.406,0.152c-0.316,0.077-0.602,0.185-0.876,0.324c-0.391,0.214-0.71,0.505-0.936,0.868
		c-0.225,0.373-0.342,0.808-0.342,1.319c0,0.412,0.074,0.8,0.213,1.126c0.213,0.488,0.588,0.877,1.051,1.126
		c0.467,0.252,1.016,0.379,1.638,0.379h0.002c0.715,0,1.282-0.132,1.765-0.358c0.332-0.163,0.622-0.359,0.888-0.595
		c0.006,0.113,0.014,0.207,0.026,0.295c0.012,0.095,0.037,0.181,0.079,0.257c0.029,0.059,0.067,0.115,0.116,0.16
		c0.078,0.062,0.165,0.104,0.253,0.126c0.093,0.023,0.198,0.029,0.308,0.029h0.426v-6.306c0-0.453-0.077-0.842-0.219-1.179
		C61.726,10.555,61.577,10.342,61.386,10.164z M60.845,16.112c-0.311,0.354-0.632,0.655-1.015,0.864
		c-0.4,0.225-0.887,0.355-1.531,0.355c-0.261,0-0.507-0.029-0.73-0.094c-0.162-0.044-0.304-0.111-0.434-0.197
		c-0.188-0.122-0.338-0.287-0.451-0.509c-0.113-0.226-0.174-0.506-0.174-0.852c0-0.3,0.059-0.532,0.174-0.728
		c0.089-0.148,0.192-0.273,0.332-0.394c0.199-0.168,0.467-0.285,0.793-0.369c0.312-0.083,0.68-0.123,1.089-0.123
		c0.719,0,1.355,0.095,1.947,0.223V16.112z"/>
</g>
<g id="Layer_1">
</g>
</svg>
