<?xml version="1.0" encoding="iso-8859-1"?>
<!-- Generator: Adobe Illustrator 16.0.0, SVG Export Plug-In . SVG Version: 6.00 Build 0)  -->
<!DOCTYPE svg PUBLIC "-//W3C//DTD SVG 1.1//EN" "http://www.w3.org/Graphics/SVG/1.1/DTD/svg11.dtd">
<svg version="1.1" xmlns="http://www.w3.org/2000/svg" xmlns:xlink="http://www.w3.org/1999/xlink" x="0px" y="0px"
	 width="71.086px" height="24px" viewBox="0 0 71.086 24" style="enable-background:new 0 0 71.086 24;" xml:space="preserve">
<g id="ICBK">
	<path style="fill-rule:evenodd;clip-rule:evenodd;fill:#C42127;" d="M59.374,7.594h3.947v1.763h-3.519v5.279h3.519v1.76h-3.947
		v1.758h5.706v-5.277h-3.51v-1.76h3.51V5.833h-5.706V7.594z M52.771,11.109h3.504v1.762h-3.504v5.279h5.716v-1.758H54.53v-1.762
		h3.517V9.348H54.53V7.589h3.956V5.83h-5.716V11.109z M58.905,0.55c-6.329,0-11.451,5.123-11.451,11.448
		c0,6.325,5.122,11.452,11.451,11.452c6.323,0,11.45-5.127,11.45-11.452C70.355,5.672,65.229,0.55,58.905,0.55z M58.905,21.676
		c-5.346,0-9.68-4.335-9.68-9.678c0-5.34,4.334-9.678,9.68-9.678c5.343,0,9.675,4.338,9.675,9.678
		C68.58,17.341,64.248,21.676,58.905,21.676z"/>
	<path style="fill:#231F20;" d="M26.904,11.79l-0.053-0.021l0.049-0.026c0.537-0.283,1.249-0.853,1.249-2.556
		c0-0.933-0.357-1.776-1.003-2.371c-0.71-0.651-1.743-0.997-2.984-0.997l-6.451-0.004v12.316l6.77,0.002
		c1.48,0,2.598-0.357,3.319-1.063c0.741-0.727,0.896-1.657,0.896-2.315C28.696,13.318,28.094,12.319,26.904,11.79z M20.055,8.082
		h3.906c0.687,0,1.839,0,1.839,1.354c0,0.498-0.217,0.849-0.643,1.047c-0.381,0.179-0.862,0.196-1.188,0.196h-3.915V8.082z
		 M26.015,15.444c-0.417,0.417-1.141,0.416-1.67,0.416h-4.307v-0.025l0.017-2.895v-0.027h4.266c0.392,0,0.953,0.062,1.401,0.355
		c0.421,0.274,0.632,0.681,0.632,1.205C26.354,14.894,26.24,15.22,26.015,15.444z M9.25,6.235C8.459,6.458,7.808,6.79,7.263,7.248
		c-0.778,0.656-2.08,2.126-2.08,4.623c0,1.19,0.201,2.174,0.617,3.006c0.347,0.69,0.833,1.274,1.541,1.835
		c1.098,0.872,2.645,1.318,4.594,1.318h3.363v-2.326H12.12c-1.765,0-3.045-0.435-3.806-1.298c-0.54-0.614-0.814-1.44-0.821-2.454
		c-0.01-1.094,0.295-1.959,0.911-2.577c0.768-0.773,2.018-1.167,3.716-1.167h3.178V5.905h-3.244
		C10.959,5.905,10.045,6.013,9.25,6.235z M0.73,18.134h2.456V5.818H0.73V18.134z M37.121,8.121h3.355V5.819H37.05
		c-1.093,0-2.008,0.106-2.802,0.33c-0.793,0.224-1.443,0.555-1.987,1.014c-0.628,0.526-2.083,2.039-2.083,4.708
		c0,1.189,0.208,2.239,0.618,3.114c0.356,0.763,0.874,1.416,1.541,1.945c1.033,0.822,2.494,1.203,4.596,1.203h3.544V15.81h-3.355
		c-1.764,0-3.046-0.456-3.809-1.354c-0.539-0.633-0.815-1.476-0.824-2.504c-0.009-1.123,0.309-2.016,0.942-2.657
		C34.204,8.517,35.443,8.121,37.121,8.121z"/>
	<rect style="fill:none;" width="71.086" height="24"/>
</g>
<g id="Layer_1">
</g>
</svg>
