<?xml version="1.0" encoding="iso-8859-1"?>
<!-- Generator: Adobe Illustrator 16.0.0, SVG Export Plug-In . SVG Version: 6.00 Build 0)  -->
<!DOCTYPE svg PUBLIC "-//W3C//DTD SVG 1.1//EN" "http://www.w3.org/Graphics/SVG/1.1/DTD/svg11.dtd">
<svg version="1.1" xmlns="http://www.w3.org/2000/svg" xmlns:xlink="http://www.w3.org/1999/xlink" x="0px" y="0px"
	 width="32.215px" height="32px" viewBox="0 0 32.215 32" style="enable-background:new 0 0 32.215 32;" xml:space="preserve">
<g id="TN">
	<path style="fill:#C32126;" d="M3.45,7.988v16.135c0,0-0.177,1.955,2.428,2.551c2.603,0.598,20.531,4.782,20.531,4.782
		s2.759,0.641,2.759-2.875c0-3.425,0-25.644,0-25.644s-0.218-3.151-3.826-2.229C20.94,1.833,5.877,5.435,5.877,5.435
		S3.45,5.815,3.45,7.988z"/>
	<path style="fill:#F15C25;" d="M3.05,7.946v16.138c0,0-0.179,1.953,2.424,2.551c2.605,0.598,20.532,4.779,20.532,4.779
		s2.758,0.645,2.758-2.874c0-3.424,0-25.645,0-25.645s-0.214-3.151-3.822-2.228c-4.4,1.128-19.467,4.726-19.467,4.726
		S3.05,5.774,3.05,7.946z"/>
	<path style="fill:#FFFFFF;" d="M14.747,20.474c0.166,0,0.331,0.028,0.414,0.073v-0.926c-0.097-0.028-0.193-0.028-0.282-0.028
		c-0.4,0-0.613,0.302-0.701,0.465c-0.712-3.689-1.119-7.45-1.2-11.261c-0.01-0.547-0.015-1.095-0.015-1.642
		c0-1.202,0.029-2.407,0.091-3.612l-0.169,0.042c-0.059,1.191-0.09,2.381-0.09,3.571c0,0.549,0.007,1.098,0.017,1.646
		c0.078,3.683,0.458,7.321,1.125,10.893l-0.859-0.018v3.54H14v-1.301c0-0.305,0.003-0.76,0.164-1.077
		c0.582,2.834,1.339,5.625,2.295,8.356l0.189,0.041c-0.987-2.804-1.762-5.672-2.352-8.584
		C14.403,20.544,14.546,20.474,14.747,20.474z M12.712,21.538v-0.454c0-1.043-0.448-1.491-1.525-1.491
		c-0.391,0-0.873,0.104-1.229,0.269l0.027,0.789c0.308-0.232,0.699-0.385,1.091-0.385c0.542,0,0.797,0.193,0.797,0.765h-0.508
		c-0.386,0-0.838,0.034-1.189,0.206c-0.127,0.061-0.233,0.148-0.327,0.25c-0.438-2.797-0.677-5.619-0.695-8.456
		c-0.003-0.122-0.003-0.244-0.003-0.366c0-2.736,0.197-5.56,0.547-8.311L9.527,4.395c-0.348,2.74-0.541,5.547-0.541,8.27v0.366
		c0.012,1.803,0.114,3.601,0.296,5.389H8.439l0.009,3.496L6.6,18.419H5.354c-0.024-0.633-0.05-1.266-0.05-1.902
		c-0.001-0.186,0.002-0.374,0.002-0.561C5.347,12.357,5.79,8.742,6.548,5.114L6.371,5.157c-0.752,3.611-1.189,7.21-1.231,10.796
		c-0.001,0.188-0.003,0.375-0.003,0.563c0,3.478,0.362,6.903,1.107,10.332l0.179,0.041c-0.267-1.22-0.468-2.438-0.638-3.658
		l0.497-0.016v-3.588h0.012l1.836,3.588h1.287v-3.632c0.345,2.819,0.892,5.614,1.651,8.37l0.184,0.045
		c-0.448-1.616-0.818-3.247-1.124-4.887c0.204,0.111,0.435,0.186,0.68,0.186c0.42,0,0.88-0.221,1.094-0.61h0.013
		c0.009,0.11,0.116,0.528,0.558,0.528h0.294c-0.021-0.275-0.035-0.525-0.041-0.792C12.719,22.162,12.712,21.896,12.712,21.538z
		 M11.683,22.309c-0.145,0.192-0.365,0.314-0.648,0.314c-0.329,0-0.583-0.131-0.583-0.433c0-0.541,0.612-0.61,1.024-0.61h0.398
		C11.874,21.854,11.832,22.108,11.683,22.309z M24.949,23.298c0.42,0,0.881-0.221,1.093-0.61h0.014
		c0.009,0.11,0.095,0.38,0.582,0.528h0.271c-0.021-0.275-0.034-0.525-0.042-0.792c-0.007-0.262-0.013-0.527-0.013-0.886v-0.454
		c0-1.043-0.448-1.491-1.525-1.491c-0.392,0-0.872,0.104-1.229,0.269l0.027,0.789c0.31-0.232,0.7-0.385,1.092-0.385
		c0.544,0,0.796,0.193,0.796,0.765h-0.507c-0.387,0-0.839,0.034-1.188,0.206c-0.117,0.057-0.209,0.146-0.3,0.24
		c-1.995-6.271-3.302-12.935-3.79-19.669l-0.164,0.042c0.441,6.067,1.552,12.076,3.224,17.795h-0.763v4.108
		c0,0.552-0.069,0.648-0.563,0.675l-0.032,0.242c0.113,0.033,0.299,0.054,0.451,0.054c0.925,0,1.069-0.765,1.069-1.268v-3.237
		c1.146,3.816,2.538,7.501,4.177,10.97c0.046-0.031,0.093-0.063,0.139-0.097c-1.185-2.511-2.23-5.143-3.159-7.848
		C24.719,23.27,24.833,23.298,24.949,23.298z M25.617,21.58h0.396c0,0.273-0.039,0.528-0.19,0.729
		c-0.145,0.192-0.365,0.314-0.647,0.314c-0.33,0-0.584-0.131-0.584-0.433C24.592,21.649,25.204,21.58,25.617,21.58z M18.228,21.538
		v-0.454c0-1.043-0.447-1.491-1.525-1.491c-0.393,0-0.873,0.104-1.229,0.269l0.028,0.789c0.307-0.232,0.699-0.385,1.091-0.385
		c0.543,0,0.797,0.193,0.797,0.765h-0.508c-0.385,0-0.838,0.034-1.191,0.206c-0.348,0.17-0.603,0.481-0.603,1.01
		c0,0.673,0.611,1.052,1.236,1.052c0.42,0,0.879-0.221,1.093-0.61h0.014c0.008,0.11,0.16,0.528,0.581,0.528h0.271
		c-0.021-0.275-0.034-0.525-0.041-0.792C18.234,22.162,18.228,21.896,18.228,21.538z M17.196,22.309
		c-0.143,0.192-0.363,0.314-0.645,0.314c-0.331,0-0.585-0.131-0.585-0.433c0-0.541,0.613-0.61,1.026-0.61h0.398
		C17.39,21.854,17.35,22.108,17.196,22.309z M24.422,0.778l-0.164,0.041c0.76,6.761,2.289,13.64,4.506,19.683v-0.507
		C26.622,14.055,25.163,7.397,24.422,0.778z M19.649,23.203l-0.01-1.722c0-0.451,0.144-1.174,0.809-1.174
		c0.593,0,0.6,0.586,0.6,1.018v1.891h0.921v-2.234c0-0.798-0.365-1.389-1.204-1.389c-0.48,0-0.87,0.157-1.161,0.563h-0.013v-0.48
		h-1.16c-1.14-4.807-1.814-9.776-1.99-14.894c-0.024-0.68-0.038-1.366-0.043-2.049l-0.164,0.04c0.005,0.671,0.017,1.346,0.042,2.015
		c0.308,9.03,2.114,17.624,5.426,25.63l0.199,0.046c-0.983-2.367-1.819-4.792-2.539-7.259L19.649,23.203z"/>
	<path style="fill:#A7A9AC;" d="M27.035,17.193c0,0.336-0.271,0.608-0.609,0.608H23.11c-0.338,0-0.609-0.272-0.609-0.608v-3.318
		c0-0.335,0.271-0.609,0.609-0.609h3.315c0.338,0,0.609,0.274,0.609,0.609V17.193z"/>
	<path style="fill:#4D4D4D;" d="M25.107,15.577c0,0.284,0.224,0.513,0.497,0.513c0.277,0,0.502-0.229,0.502-0.513
		s-0.225-0.513-0.502-0.513C25.331,15.063,25.107,15.292,25.107,15.577z M22.755,15.585c0-0.676,0.534-1.226,1.192-1.226
		c0.265,0,0.509,0.089,0.709,0.241c0.005-0.019,0.01-0.038,0.018-0.052c0.077-0.213,0.553-0.757,0.766-0.994
		c-0.208-0.069-0.428-0.116-0.659-0.116c-1.156,0-2.095,0.938-2.095,2.095c0,0.658,0.31,1.238,0.784,1.622
		c0.099-0.082,0.261-0.219,0.39-0.35C23.244,16.761,22.755,16.233,22.755,15.585z M24.422,15.577c0-0.284-0.225-0.513-0.499-0.513
		c-0.276,0-0.499,0.229-0.499,0.513s0.223,0.513,0.499,0.513C24.197,16.09,24.422,15.861,24.422,15.577z M26.213,14.012
		c-0.164,0.104-0.371,0.243-0.478,0.354c0.601,0.064,1.069,0.583,1.069,1.219c0,0.677-0.533,1.226-1.191,1.226
		c-0.243,0-0.47-0.075-0.658-0.204c-0.295,0.534-0.599,0.795-0.792,0.919c0.196,0.062,0.401,0.104,0.617,0.104
		c1.157,0,2.095-0.938,2.095-2.095C26.875,14.933,26.618,14.394,26.213,14.012z"/>
	<rect style="fill:none;" width="32.215" height="32"/>
</g>
<g id="Layer_1">
</g>
</svg>
