<?xml version="1.0" encoding="iso-8859-1"?>
<!-- Generator: Adobe Illustrator 19.0.0, SVG Export Plug-In . SVG Version: 6.00 Build 0)  -->
<svg version="1.1" id="Layer_1" xmlns="http://www.w3.org/2000/svg" xmlns:xlink="http://www.w3.org/1999/xlink" x="0px" y="0px"
	 viewBox="0 0 512.8 512.8" style="enable-background:new 0 0 512.8 512.8;" xml:space="preserve">
<path style="fill:#FFD15C;" d="M477.2,306.933c0,54.4,0,107.733,0,162.133c-147.2,0-294.4,0-442.667,0c0-54.4,0-107.733,0-162.133
	c0-14.933,4.267-28.8,12.8-42.667l0,0c8.533-13.867,12.8-28.8,12.8-43.733c0-55.467,0-109.867,0-165.333
	c0-13.867,10.667-28.8,24.533-32c113.067-30.933,232.533-30.933,345.6,0c13.867,3.2,24.533,18.133,24.533,32
	c0,55.467,0,109.867,0,165.333c0,14.933,4.267,29.867,12.8,43.733l0,0C472.933,278.133,477.2,293.067,477.2,306.933z"/>
<path style="fill:#40596B;" d="M114.533,512.8H78.267c-11.733,0-21.333-9.6-21.333-21.333v-22.4h78.933v22.4
	C135.867,503.2,126.267,512.8,114.533,512.8z"/>
<path id="SVGCleanerId_0" style="fill:#40596B;" d="M434.533,512.8h-36.267c-11.733,0-21.333-9.6-21.333-21.333v-22.4h78.933v22.4
	C455.867,503.2,446.267,512.8,434.533,512.8z"/>
<path style="fill:#40596B;" d="M135.867,469.067v22.4c0,11.733-9.6,21.333-21.333,21.333H78.267c-11.733,0-21.333-9.6-21.333-21.333
	v-22.4H135.867z"/>
<g>
	<path id="SVGCleanerId_0_1_" style="fill:#40596B;" d="M434.533,512.8h-36.267c-11.733,0-21.333-9.6-21.333-21.333v-22.4h78.933
		v22.4C455.867,503.2,446.267,512.8,434.533,512.8z"/>
</g>
<g>
	<path style="fill:#FF7058;" d="M477.2,469.067H35.6c-9.6,0-18.133-7.467-18.133-18.133l0,0c0-9.6,7.467-18.133,18.133-18.133h441.6
		c9.6,0,18.133,7.467,18.133,18.133l0,0C495.333,460.533,486.8,469.067,477.2,469.067z"/>
	<path style="fill:#FF7058;" d="M193.467,329.333h125.867c7.467,0,12.8-6.4,12.8-12.8l0,0c0-7.467-6.4-12.8-12.8-12.8H193.467
		c-7.467,0-12.8,6.4-12.8,12.8l0,0C180.667,322.933,186,329.333,193.467,329.333z"/>
	<path style="fill:#FF7058;" d="M193.467,370.933h125.867c7.467,0,12.8-6.4,12.8-12.8l0,0c0-7.467-6.4-12.8-12.8-12.8H193.467
		c-7.467,0-12.8,6.4-12.8,12.8l0,0C180.667,364.533,186,370.933,193.467,370.933z"/>
</g>
<g>
	<path style="fill:#ACB3BA;" d="M60.133,228H35.6c-10.667,0-19.2-8.533-19.2-19.2v-11.733h16V208.8c0,1.067,1.067,3.2,3.2,3.2
		h24.533V228z"/>
	<path style="fill:#ACB3BA;" d="M452.667,228H477.2c10.667,0,19.2-8.533,19.2-19.2v-11.733h-16V208.8c0,1.067-1.067,3.2-3.2,3.2
		h-24.533V228z"/>
	<path style="fill:#ACB3BA;" d="M496.4,197.067V208.8c0,1.067,0,1.067,0,2.133c-1.067,9.6-8.533,17.067-18.133,17.067h-24.533v-16
		h24.533c1.067,0,1.067,0,2.133-1.067c0-1.067,1.067-1.067,1.067-2.133v-11.733H496.4z"/>
</g>
<rect x="96.4" y="89.333" style="fill:#54C0EB;" width="320" height="162.133"/>
<g>
	<polygon style="fill:#FFFFFF;" points="164.667,89.333 96.4,169.333 96.4,145.867 144.4,89.333 	"/>
	<polygon style="fill:#FFFFFF;" points="209.467,89.333 96.4,224.8 96.4,185.333 178.533,89.333 	"/>
</g>
<path style="fill:#FF7058;" d="M333.2,62.667H179.6c-9.6,0-16-7.467-16-16l0,0c0-9.6,7.467-16,16-16h152.533c9.6,0,16,7.467,16,16
	l0,0C349.2,55.2,341.733,62.667,333.2,62.667z"/>
<g>
	<rect x="56.933" y="469.067" style="fill:#334A5E;" width="78.933" height="16"/>
	<rect x="376.933" y="469.067" style="fill:#334A5E;" width="78.933" height="16"/>
</g>
<g>
	<rect x="480.4" y="197.067" style="fill:#9EAAB5;" width="16" height="11.733"/>
	<rect x="16.4" y="197.067" style="fill:#9EAAB5;" width="16" height="11.733"/>
</g>
<g>
	<path style="fill:#40596B;" d="M474,200.267h27.733c6.4,0,10.667-4.267,10.667-10.667v-60.8c0-6.4-4.267-10.667-10.667-10.667H474
		c-6.4,0-10.667,4.267-10.667,10.667v60.8C463.333,196,468.667,200.267,474,200.267z"/>
	<path style="fill:#40596B;" d="M38.8,200.267H11.067C4.667,200.267,0.4,196,0.4,189.6v-60.8c0-6.4,4.267-10.667,10.667-10.667H38.8
		c6.4,0,10.667,4.267,10.667,10.667v60.8C49.467,196,44.133,200.267,38.8,200.267z"/>
</g>
<g>
	<circle style="fill:#FFFFFF;" cx="115.6" cy="336.8" r="41.6"/>
	<circle style="fill:#FFFFFF;" cx="397.2" cy="336.8" r="41.6"/>
</g>
<g>
</g>
<g>
</g>
<g>
</g>
<g>
</g>
<g>
</g>
<g>
</g>
<g>
</g>
<g>
</g>
<g>
</g>
<g>
</g>
<g>
</g>
<g>
</g>
<g>
</g>
<g>
</g>
<g>
</g>
</svg>
