<?xml version="1.0" encoding="iso-8859-1"?>
<!-- Generator: Adobe Illustrator 19.0.0, SVG Export Plug-In . SVG Version: 6.00 Build 0)  -->
<svg version="1.1" id="Layer_1" xmlns="http://www.w3.org/2000/svg" xmlns:xlink="http://www.w3.org/1999/xlink" x="0px" y="0px"
	 viewBox="0 0 512 512" style="enable-background:new 0 0 512 512;" xml:space="preserve">
<path style="fill:#877E73;" d="M512,445.217L512,445.217C512,482.1,482.1,512,445.217,512H66.783C29.9,512,0,482.1,0,445.217l0,0
	c0-18.442,14.949-33.391,33.391-33.391v-22.261c0-36.883,29.9-66.783,66.783-66.783l0,0V222.609
	c0-61.472,49.833-111.304,111.304-111.304l0,0c-30.736,0-55.652-24.917-55.652-55.652l0,0C155.826,24.917,180.743,0,211.478,0
	h89.043c30.736,0,55.652,24.917,55.652,55.652l0,0c0,30.736-24.917,55.652-55.652,55.652l0,0
	c61.471,0,111.304,49.832,111.304,111.304v100.174l0,0c36.883,0,66.783,29.9,66.783,66.783v22.261
	C497.051,411.826,512,426.775,512,445.217z"/>
<path style="fill:#A59A8E;" d="M423.585,465.378L423.585,465.378c0,25.748-19.573,46.622-43.718,46.622H132.133
	c-24.145,0-43.718-20.873-43.718-46.622l0,0c0-12.873,9.787-23.31,21.859-23.31v-15.54c0-25.748,19.573-46.622,43.718-46.622l0,0
	V250.464c0-42.913,32.622-77.703,72.863-77.703h58.29c40.241,0,72.863,34.788,72.863,77.703v129.441l0,0
	c24.145,0,43.718,20.873,43.718,46.622v15.54C413.799,442.067,423.585,452.504,423.585,465.378z M226.318,111.304h59.362
	c20.491,0,37.102-14.95,37.102-33.391l0,0c0-18.441-16.611-33.391-37.101-33.391H226.32c-20.491,0-37.102,14.95-37.102,33.391l0,0
	C189.217,96.354,205.828,111.304,226.318,111.304z"/>
<path style="fill:#3D3630;" d="M512,445.217L512,445.217C512,482.1,482.1,512,445.217,512H66.783C29.9,512,0,482.1,0,445.217l0,0
	c0-18.442,14.949-33.391,33.391-33.391v-22.261c0-36.883,29.9-66.783,66.783-66.783l0,0c36.883,0,66.783,29.9,66.783,66.783v22.261
	h178.087v-22.261c0-36.883,29.9-66.783,66.783-66.783l0,0c36.883,0,66.783,29.9,66.783,66.783v22.261
	C497.051,411.826,512,426.775,512,445.217z"/>
<path style="fill:#5E5854;" d="M166.957,389.565v22.261h178.087v-22.261c0-36.883,29.9-66.783,66.783-66.783l0,0
	c36.883,0,66.783,29.9,66.783,66.783v22.261c14.537,0,26.899,9.293,31.484,22.261H1.908c4.585-12.968,16.946-22.261,31.484-22.261
	v-22.261c0-36.883,29.9-66.783,66.783-66.783l0,0C137.057,322.783,166.957,352.682,166.957,389.565z"/>
<path style="fill:#F77E41;" d="M435.367,189.025L194.935,434.087H70.283l301.438-307.335c8.598-8.787,22.692-8.941,31.48-0.344
	l31.823,31.136C443.812,166.143,443.965,180.236,435.367,189.025z"/>
<g>
</g>
<g>
</g>
<g>
</g>
<g>
</g>
<g>
</g>
<g>
</g>
<g>
</g>
<g>
</g>
<g>
</g>
<g>
</g>
<g>
</g>
<g>
</g>
<g>
</g>
<g>
</g>
<g>
</g>
</svg>
